<?xml version="1.0" encoding="utf-8"?>
<?xml-stylesheet type="text/xsl" href="rss1.xsl"?>
<rss version="2.0" xmlns:atom="http://www.w3.org/2005/Atom" xmlns:content="http://purl.org/rss/1.0/modules/content/" xmlns:dc="http://purl.org/dc/elements/1.1/" xmlns:media="http://search.yahoo.com/mrss/">
<channel>
 <title>Getty</title>
 <link>http://www.gettyimg.com/</link>
 <atom:link href="http://www.gettyimg.com/" rel="self" type="application/rss+xml" />

 
                <item>
                <title><![CDATA[【HD Live Performances】HDTV - Dua Lipa - Live @ Glastonbury 2024 HDTV H264 1080i DD2.0-ilya2129]]></title>
                <link><![CDATA[https://sharemania.us/threads/dua-lipa-live-glastonbury-2024-hdtv-h264-1080i-dd2-0-ilya2129.248223/]]></link>
                <description><![CDATA[<article>
<blockquote class="messageText SelectQuoteContainer ugc baseHtml">
<div style="text-align: center"><img src="https://i122.fastpic.org/big/2023/0623/b4/b37c6294354538a70aac338bdf3af5b4.png?r=1" class="bbCodeImage LbImage" alt="[​IMG]" data-url="https://i122.fastpic.org/big/2023/0623/b4/b37c6294354538a70aac338bdf3af5b4.png?r=1" style=""><br>
<br>
<a href="https://fastpic.org/view/123/2024/0629/_9022badebed59b71b93780b01757caab.png.html" target="_blank" class="externalLink" rel="nofollow"><img src="https://i123.fastpic.org/thumb/2024/0629/ab/_9022badebed59b71b93780b01757caab.jpeg" class="bbCodeImage LbImage" alt="[​IMG]" data-url="https://i123.fastpic.org/thumb/2024/0629/ab/_9022badebed59b71b93780b01757caab.jpeg"></a> <a href="https://fastpic.org/view/123/2024/0629/_d76448df2d290a85b79157eff185646a.png.html" target="_blank" class="externalLink" rel="nofollow"><img src="https://i123.fastpic.org/thumb/2024/0629/6a/_d76448df2d290a85b79157eff185646a.jpeg" class="bbCodeImage LbImage" alt="[​IMG]" data-url="https://i123.fastpic.org/thumb/2024/0629/6a/_d76448df2d290a85b79157eff185646a.jpeg"></a> <a href="https://fastpic.org/view/123/2024/0629/_5794480ceaf95b343622eec04921221f.png.html" target="_blank" class="externalLink" rel="nofollow"><img src="https://i123.fastpic.org/thumb/2024/0629/1f/_5794480ceaf95b343622eec04921221f.jpeg" class="bbCodeImage LbImage" alt="[​IMG]" data-url="https://i123.fastpic.org/thumb/2024/0629/1f/_5794480ceaf95b343622eec04921221f.jpeg"></a> <a href="https://fastpic.org/view/123/2024/0629/_14b56a64a739f373eb60121b121911b9.png.html" target="_blank" class="externalLink" rel="nofollow"><img src="https://i123.fastpic.org/thumb/2024/0629/b9/_14b56a64a739f373eb60121b121911b9.jpeg" class="bbCodeImage LbImage" alt="[​IMG]" data-url="https://i123.fastpic.org/thumb/2024/0629/b9/_14b56a64a739f373eb60121b121911b9.jpeg"></a> <a href="https://fastpic.org/view/123/2024/0629/_1ff31c5fe8b3e662d8e3691a57241490.png.html" target="_blank" class="externalLink" rel="nofollow"><img src="https://i123.fastpic.org/thumb/2024/0629/90/_1ff31c5fe8b3e662d8e3691a57241490.jpeg" class="bbCodeImage LbImage" alt="[​IMG]" data-url="https://i123.fastpic.org/thumb/2024/0629/90/_1ff31c5fe8b3e662d8e3691a57241490.jpeg"></a> <a href="https://fastpic.org/view/123/2024/0629/_266b0dc8c1b011ffff179aca34538742.png.html" target="_blank" class="externalLink" rel="nofollow"><img src="https://i123.fastpic.org/thumb/2024/0629/42/_266b0dc8c1b011ffff179aca34538742.jpeg" class="bbCodeImage LbImage" alt="[​IMG]" data-url="https://i123.fastpic.org/thumb/2024/0629/42/_266b0dc8c1b011ffff179aca34538742.jpeg"></a><br>
<br>
<i><br>
Set 1<br>
Training Season<br>
One Kiss<br>
Illusion<br>
Break My Heart<br>
Levitating<br>
<br>
Set 2<br>
These Walls<br>
Be the One<br>
The Less I Know the Better (with Kevin Parker)<br>
Falling Forever<br>
Love Again<br>
Pretty Please<br>
<br>
Set 3<br>
Hallucinate<br>
New Rules<br>
Electricity<br>
Cold Heart<br>
<br>
Set 4<br>
Happy for You<br>
<br>
Encore:<br>
Physical<br>
Don't Start Now<br>
Houdini (with Kevin Parker)<br>
</i><br>
​</div><br>
<div class="bbCodeBlock bbCodeCode">
<div class="type">Code:</div>
<pre>General
ID                                       : 1 (0x1)
Complete name                            : C:\Recordings\Glasto 2024\Dua Lipa - Live @ Glastonbury 2024 HDTV H264 1080i DD2.0-ilya2129.ts
Format                                   : MPEG-TS
File size                                : 5.09 GiB
Duration                                 : 1 h 36 min
Overall bit rate mode                    : Variable
Overall bit rate                         : 7 543 kb/s
Frame rate                               : 25.000 FPS

Video
ID                                       : 5400 (0x1518)
Menu ID                                  : 1 (0x1)
Format                                   : AVC
Format/Info                              : Advanced Video Codec
Format profile                           : High@L4
Format settings                          : CABAC / 4 Ref Frames
Format settings, CABAC                   : Yes
Format settings, Reference frames        : 4 frames
Format settings, GOP                     : M=8, N=24
Codec ID                                 : 27
Duration                                 : 1 h 36 min
Bit rate                                 : 6 976 kb/s
Width                                    : 1 920 pixels
Height                                   : 1 080 pixels
Display aspect ratio                     : 16:9
Active Format Description                : Letterbox 16:9 image, with alternative 14:9 center
Frame rate                               : 25.000 FPS
Standard                                 : Component
Color space                              : YUV
Chroma subsampling                       : 4:2:0
Bit depth                                : 8 bits
Scan type                                : MBAFF
Scan type, store method                  : Interleaved fields
Scan order                               : Top Field First
Bits/(Pixel*Frame)                       : 0.135
Stream size                              : 4.71 GiB (92%)
Color range                              : Limited
Color primaries                          : BT.709
Transfer characteristics                 : BT.709
Matrix coefficients                      : BT.709

Audio
ID                                       : 5401 (0x1519)
Menu ID                                  : 1 (0x1)
Format                                   : AC-3
Format/Info                              : Audio Coding 3
Commercial name                          : Dolby Digital
Codec ID                                 : 6
Duration                                 : 1 h 36 min
Bit rate mode                            : Constant
Bit rate                                 : 192 kb/s
Channel(s)                               : 2 channels
Channel layout                           : L R
Sampling rate                            : 48.0 kHz
Frame rate                               : 31.250 FPS (1536 SPF)
Compression mode                         : Lossy
Delay relative to video                  : -160 ms
Stream size                              : 133 MiB (3%)
Language                                 : English
Service kind                             : Complete Main


</pre>
</div>
<div class="bbCodeBlock bbCodeVfcHH HiddenContent">
<div class="attribution type">Hidden Content:</div>
<blockquote>You must reply before you can see the hidden data contained here.</blockquote>
</div>
<div class="messageTextEndMarker">&nbsp;</div>
</blockquote>
</article>]]></description>
                <author><![CDATA[ilya2129]]></author>
                </item>

                </channel></rss>